# Robot Multi-Mallado para Seleccion Local
mtllib robot.mtl

o Cabeza
usemtl Mat_Cabeza
v -0.3500 0.7000 0.3500
v 0.3500 0.7000 0.3500
v 0.3500 1.2500 0.3500
v -0.3500 1.2500 0.3500
v -0.3500 0.7000 -0.3500
v 0.3500 0.7000 -0.3500
v 0.3500 1.2500 -0.3500
v -0.3500 1.2500 -0.3500
vn 0.0000 0.0000 1.0000
vn 0.0000 0.0000 -1.0000
vn 0.0000 1.0000 0.0000
vn 0.0000 -1.0000 0.0000
vn 1.0000 0.0000 0.0000
vn -1.0000 0.0000 0.0000
f 1//1 2//1 3//1
f 1//1 3//1 4//1
f 6//2 5//2 8//2
f 6//2 8//2 7//2
f 4//3 3//3 7//3
f 4//3 7//3 8//3
f 5//4 6//4 2//4
f 5//4 2//4 1//4
f 2//5 6//5 7//5
f 2//5 7//5 3//5
f 5//6 1//6 4//6
f 5//6 4//6 8//6

o Visor
usemtl Mat_Visor
v -0.2500 0.9000 0.4200
v 0.2500 0.9000 0.4200
v 0.2500 1.0800 0.4200
v -0.2500 1.0800 0.4200
v -0.2500 0.9000 0.3500
v 0.2500 0.9000 0.3500
v 0.2500 1.0800 0.3500
v -0.2500 1.0800 0.3500
vn 0.0000 0.0000 1.0000
vn 0.0000 0.0000 -1.0000
vn 0.0000 1.0000 0.0000
vn 0.0000 -1.0000 0.0000
vn 1.0000 0.0000 0.0000
vn -1.0000 0.0000 0.0000
f 9//7 10//7 11//7
f 9//7 11//7 12//7
f 14//8 13//8 16//8
f 14//8 16//8 15//8
f 12//9 11//9 15//9
f 12//9 15//9 16//9
f 13//10 14//10 10//10
f 13//10 10//10 9//10
f 10//11 14//11 15//11
f 10//11 15//11 11//11
f 13//12 9//12 12//12
f 13//12 12//12 16//12

o Torso
usemtl Mat_Torso
v -0.5500 -0.3000 0.3800
v 0.5500 -0.3000 0.3800
v 0.5500 0.7000 0.3800
v -0.5500 0.7000 0.3800
v -0.5500 -0.3000 -0.3800
v 0.5500 -0.3000 -0.3800
v 0.5500 0.7000 -0.3800
v -0.5500 0.7000 -0.3800
vn 0.0000 0.0000 1.0000
vn 0.0000 0.0000 -1.0000
vn 0.0000 1.0000 0.0000
vn 0.0000 -1.0000 0.0000
vn 1.0000 0.0000 0.0000
vn -1.0000 0.0000 0.0000
f 17//13 18//13 19//13
f 17//13 19//13 20//13
f 22//14 21//14 24//14
f 22//14 24//14 23//14
f 20//15 19//15 23//15
f 20//15 23//15 24//15
f 21//16 22//16 18//16
f 21//16 18//16 17//16
f 18//17 22//17 23//17
f 18//17 23//17 19//17
f 21//18 17//18 20//18
f 21//18 20//18 24//18

o Brazo_Izquierdo
usemtl Mat_Brazos
v -0.9000 -0.1500 0.1800
v -0.5500 -0.1500 0.1800
v -0.5500 0.5500 0.1800
v -0.9000 0.5500 0.1800
v -0.9000 -0.1500 -0.1800
v -0.5500 -0.1500 -0.1800
v -0.5500 0.5500 -0.1800
v -0.9000 0.5500 -0.1800
vn 0.0000 0.0000 1.0000
vn 0.0000 0.0000 -1.0000
vn 0.0000 1.0000 0.0000
vn 0.0000 -1.0000 0.0000
vn 1.0000 0.0000 0.0000
vn -1.0000 0.0000 0.0000
f 25//19 26//19 27//19
f 25//19 27//19 28//19
f 30//20 29//20 32//20
f 30//20 32//20 31//20
f 28//21 27//21 31//21
f 28//21 31//21 32//21
f 29//22 30//22 26//22
f 29//22 26//22 25//22
f 26//23 30//23 31//23
f 26//23 31//23 27//23
f 29//24 25//24 28//24
f 29//24 28//24 32//24

o Brazo_Derecho
usemtl Mat_Brazos
v 0.5500 -0.1500 0.1800
v 0.9000 -0.1500 0.1800
v 0.9000 0.5500 0.1800
v 0.5500 0.5500 0.1800
v 0.5500 -0.1500 -0.1800
v 0.9000 -0.1500 -0.1800
v 0.9000 0.5500 -0.1800
v 0.5500 0.5500 -0.1800
vn 0.0000 0.0000 1.0000
vn 0.0000 0.0000 -1.0000
vn 0.0000 1.0000 0.0000
vn 0.0000 -1.0000 0.0000
vn 1.0000 0.0000 0.0000
vn -1.0000 0.0000 0.0000
f 33//25 34//25 35//25
f 33//25 35//25 36//25
f 38//26 37//26 40//26
f 38//26 40//26 39//26
f 36//27 35//27 39//27
f 36//27 39//27 40//27
f 37//28 38//28 34//28
f 37//28 34//28 33//28
f 34//29 38//29 39//29
f 34//29 39//29 35//29
f 37//30 33//30 36//30
f 37//30 36//30 40//30

o Base_Orugas
usemtl Mat_Base
v -0.6500 -0.7500 0.5000
v 0.6500 -0.7500 0.5000
v 0.6500 -0.3000 0.5000
v -0.6500 -0.3000 0.5000
v -0.6500 -0.7500 -0.5000
v 0.6500 -0.7500 -0.5000
v 0.6500 -0.3000 -0.5000
v -0.6500 -0.3000 -0.5000
vn 0.0000 0.0000 1.0000
vn 0.0000 0.0000 -1.0000
vn 0.0000 1.0000 0.0000
vn 0.0000 -1.0000 0.0000
vn 1.0000 0.0000 0.0000
vn -1.0000 0.0000 0.0000
f 41//31 42//31 43//31
f 41//31 43//31 44//31
f 46//32 45//32 48//32
f 46//32 48//32 47//32
f 44//33 43//33 47//33
f 44//33 47//33 48//33
f 45//34 46//34 42//34
f 45//34 42//34 41//34
f 42//35 46//35 47//35
f 42//35 47//35 43//35
f 45//36 41//36 44//36
f 45//36 44//36 48//36
